<?xml version="1.0" encoding="UTF-8" standalone="no"?>
<svg width="559px" height="328px" viewBox="0 0 559 328" version="1.1" xmlns="http://www.w3.org/2000/svg" xmlns:xlink="http://www.w3.org/1999/xlink" xmlns:sketch="http://www.bohemiancoding.com/sketch/ns">
    <!-- Generator: Sketch 3.2.2 (9983) - http://www.bohemiancoding.com/sketch -->
    <title>render-logo</title>
    <desc>Created with Sketch.</desc>
    <defs></defs>
    <g id="Page-1" stroke="none" stroke-width="1" fill="none" fill-rule="evenodd" sketch:type="MSPage">
        <g id="Just-Logo" sketch:type="MSArtboardGroup" transform="translate(-288.000000, -332.000000)">
            <g id="render-logo" sketch:type="MSLayerGroup" transform="translate(288.000000, 332.000000)">
                <path d="M460.397989,94.7281453 L212,94.7281453 L212,178.106491 L460.397989,178.106491 L460.397989,234.850088 L558.251742,136.417318 L460.397989,37.9845488 L460.397989,94.7281453 Z" id="Arrow" fill="#50A4B3" sketch:type="MSShapeGroup"></path>
                <path d="M152.361322,337.498894 L152.361322,320.008816 C152.361322,308.967076 161.320718,300.015977 172.367983,300.015977 L191.73443,300.015977 L191.73443,268.749098 L229.949505,268.749098 L229.949505,300.015977 L229.949505,300.015977 L249.315952,300.015977 C260.365326,300.015977 269.322613,308.969806 269.322613,320.008816 L269.322613,327.808759 L152.361322,327.808759 L152.361322,337.498894 Z M423.340946,62.6192982 L423.340946,20.0868602 C423.340946,9.04363379 414.388299,0.0855387344 403.34465,0.0855387344 L20.6553503,0.0855387344 C9.60934845,0.0855387344 0.65905381,9.04043539 0.65905381,20.0868602 L0.65905381,248.747776 C0.65905381,259.791003 9.61170069,268.749098 20.6553503,268.749098 L403.34465,268.749098 C414.390652,268.749098 423.340946,259.794201 423.340946,248.747776 L423.340946,208.531403 L389.758001,208.531403 L389.758001,237.482218 L35.4000313,237.482218 L35.4000313,34.8265162 L389.758001,34.8265162 L389.758001,62.6192982 L423.340946,62.6192982 Z M212,262.958935 C217.436292,262.958935 221.843277,258.55195 221.843277,253.115658 C221.843277,247.679366 217.436292,243.272381 212,243.272381 C206.563708,243.272381 202.156723,247.679366 202.156723,253.115658 C202.156723,258.55195 206.563708,262.958935 212,262.958935 Z" id="Monitor" fill="#3B3B3B" sketch:type="MSShapeGroup"></path>
            </g>
        </g>
    </g>
</svg>